<svg aria-roledescription="er" role="graphics-document document" viewBox="-108.72550201416016 0 480.9046325683594 836" style="max-width: 100%;" xmlns="http://www.w3.org/2000/svg" width="100%" id="graph-div" height="100%" xmlns:xlink="http://www.w3.org/1999/xlink"><style>@import url("https://cdnjs.cloudflare.com/ajax/libs/font-awesome/6.5.1/css/all.min.css");'</style><style>#graph-div{font-family:"trebuchet ms",verdana,arial,sans-serif;font-size:16px;fill:#333;}#graph-div .error-icon{fill:#552222;}#graph-div .error-text{fill:#552222;stroke:#552222;}#graph-div .edge-thickness-normal{stroke-width:2px;}#graph-div .edge-thickness-thick{stroke-width:3.5px;}#graph-div .edge-pattern-solid{stroke-dasharray:0;}#graph-div .edge-pattern-dashed{stroke-dasharray:3;}#graph-div .edge-pattern-dotted{stroke-dasharray:2;}#graph-div .marker{fill:#333333;stroke:#333333;}#graph-div .marker.cross{stroke:#333333;}#graph-div svg{font-family:"trebuchet ms",verdana,arial,sans-serif;font-size:16px;}#graph-div .entityBox{fill:#ECECFF;stroke:#9370DB;}#graph-div .attributeBoxOdd{fill:#ffffff;stroke:#9370DB;}#graph-div .attributeBoxEven{fill:#f2f2f2;stroke:#9370DB;}#graph-div .relationshipLabelBox{fill:hsl(80, 100%, 96.2745098039%);opacity:0.7;background-color:hsl(80, 100%, 96.2745098039%);}#graph-div .relationshipLabelBox rect{opacity:0.5;}#graph-div .relationshipLine{stroke:#333333;}#graph-div .entityTitleText{text-anchor:middle;font-size:18px;fill:#333;}#graph-div #MD_PARENT_START{fill:#f5f5f5!important;stroke:#333333!important;stroke-width:1;}#graph-div #MD_PARENT_END{fill:#f5f5f5!important;stroke:#333333!important;stroke-width:1;}#graph-div :root{--mermaid-font-family:"trebuchet ms",verdana,arial,sans-serif;}</style><g></g><defs><marker orient="auto" markerHeight="240" markerWidth="190" refY="7" refX="0" id="MD_PARENT_START"><path d="M 18,7 L9,13 L1,7 L9,1 Z"></path></marker></defs><defs><marker orient="auto" markerHeight="28" markerWidth="20" refY="7" refX="19" id="MD_PARENT_END"><path d="M 18,7 L9,13 L1,7 L9,1 Z"></path></marker></defs><defs><marker orient="auto" markerHeight="18" markerWidth="18" refY="9" refX="0" id="ONLY_ONE_START"><path d="M9,0 L9,18 M15,0 L15,18" fill="none" stroke="gray"></path></marker></defs><defs><marker orient="auto" markerHeight="18" markerWidth="18" refY="9" refX="18" id="ONLY_ONE_END"><path d="M3,0 L3,18 M9,0 L9,18" fill="none" stroke="gray"></path></marker></defs><defs><marker orient="auto" markerHeight="18" markerWidth="30" refY="9" refX="0" id="ZERO_OR_ONE_START"><circle r="6" cy="9" cx="21" fill="white" stroke="gray"></circle><path d="M9,0 L9,18" fill="none" stroke="gray"></path></marker></defs><defs><marker orient="auto" markerHeight="18" markerWidth="30" refY="9" refX="30" id="ZERO_OR_ONE_END"><circle r="6" cy="9" cx="9" fill="white" stroke="gray"></circle><path d="M21,0 L21,18" fill="none" stroke="gray"></path></marker></defs><defs><marker orient="auto" markerHeight="36" markerWidth="45" refY="18" refX="18" id="ONE_OR_MORE_START"><path d="M0,18 Q 18,0 36,18 Q 18,36 0,18 M42,9 L42,27" fill="none" stroke="gray"></path></marker></defs><defs><marker orient="auto" markerHeight="36" markerWidth="45" refY="18" refX="27" id="ONE_OR_MORE_END"><path d="M3,9 L3,27 M9,18 Q27,0 45,18 Q27,36 9,18" fill="none" stroke="gray"></path></marker></defs><defs><marker orient="auto" markerHeight="36" markerWidth="57" refY="18" refX="18" id="ZERO_OR_MORE_START"><circle r="6" cy="18" cx="48" fill="white" stroke="gray"></circle><path d="M0,18 Q18,0 36,18 Q18,36 0,18" fill="none" stroke="gray"></path></marker></defs><defs><marker orient="auto" markerHeight="36" markerWidth="57" refY="18" refX="39" id="ZERO_OR_MORE_END"><circle r="6" cy="18" cx="9" fill="white" stroke="gray"></circle><path d="M21,18 Q39,0 57,18 Q39,36 21,18" fill="none" stroke="gray"></path></marker></defs><path style="stroke: gray; fill: none;" marker-start="url(#ONLY_ONE_START)" marker-end="url(#ZERO_OR_MORE_END)" d="M293.793,324.4L293.793,332.733C293.793,341.067,293.793,357.733,293.793,378C293.793,398.267,293.793,422.133,293.793,434.067L293.793,446" class="er relationshipLine"></path><path style="stroke: gray; fill: none;" marker-start="url(#ONLY_ONE_START)" marker-end="url(#ONLY_ONE_END)" d="M77.771,324.4L77.771,332.733C77.771,341.067,77.771,357.733,77.771,374.4C77.771,391.067,77.771,407.733,77.771,416.067L77.771,424.4" class="er relationshipLine"></path><path style="stroke: gray; fill: none;" marker-start="url(#ZERO_OR_MORE_START)" marker-end="url(#ONLY_ONE_END)" d="M135.543,119.557L161.918,133.964C188.293,148.372,241.043,177.186,267.418,199.926C293.793,222.667,293.793,239.333,293.793,247.667L293.793,256" class="er relationshipLine"></path><path style="stroke: gray; fill: none;" marker-start="url(#ZERO_OR_MORE_START)" marker-end="url(#ONLY_ONE_END)" d="M77.771,156L77.771,164.333C77.771,172.667,77.771,189.333,77.771,206C77.771,222.667,77.771,239.333,77.771,247.667L77.771,256" class="er relationshipLine"></path><path style="stroke: gray; fill: none;" marker-start="url(#ONLY_ONE_START)" marker-end="url(#ZERO_OR_MORE_END)" d="M20,131.246L3.356,143.705C-13.288,156.164,-46.575,181.082,-63.219,207.574C-79.863,234.067,-79.863,262.133,-79.863,290.2C-79.863,318.267,-79.863,346.333,-79.863,381.733C-79.863,417.133,-79.863,459.867,-79.863,502.6C-79.863,545.333,-79.863,588.067,-60.16,621.836C-40.457,655.604,-1.051,680.409,18.652,692.811L38.355,705.213" class="er relationshipLine"></path><path style="stroke: gray; fill: none;" marker-start="url(#ONLY_ONE_START)" marker-end="url(#ZERO_OR_MORE_END)" d="M293.793,559.2L293.793,571.133C293.793,583.067,293.793,606.933,274.09,631.269C254.387,655.604,214.98,680.409,195.277,692.811L175.574,705.213" class="er relationshipLine"></path><g transform="translate(243.63125228881836,256 )" id="entity-shop-933ea2d0-0d64-5b04-bc1d-733c28030fef"><rect height="68.40000057220459" width="100.32265663146973" y="0" x="0" class="er entityBox"></rect><text style="dominant-baseline: middle; text-anchor: middle; font-size: 12px;" transform="translate(50.16132831573486,11.800000190734863)" y="0" x="0" id="text-entity-shop-933ea2d0-0d64-5b04-bc1d-733c28030fef" class="er entityLabel">shop</text><rect height="22.800000190734863" width="36.21914100646973" y="23.600000381469727" x="0" class="er attributeBoxOdd"></rect><text style="dominant-baseline: middle; font-size: 10.2px;" transform="translate(5,35.00000047683716)" y="0" x="0" id="text-entity-shop-933ea2d0-0d64-5b04-bc1d-733c28030fef-attr-1-type" class="er entityLabel">string</text><rect height="22.800000190734863" width="64.103515625" y="23.600000381469727" x="36.21914100646973" class="er attributeBoxOdd"></rect><text style="dominant-baseline: middle; font-size: 10.2px;" transform="translate(41.21914100646973,35.00000047683716)" y="0" x="0" id="text-entity-shop-933ea2d0-0d64-5b04-bc1d-733c28030fef-attr-1-name" class="er entityLabel">shop_id(PK)</text><rect height="22" width="36.21914100646973" y="46.40000057220459" x="0" class="er attributeBoxEven"></rect><text style="dominant-baseline: middle; font-size: 10.2px;" transform="translate(5,57.40000057220459)" y="0" x="0" id="text-entity-shop-933ea2d0-0d64-5b04-bc1d-733c28030fef-attr-2-type" class="er entityLabel">string</text><rect height="22" width="64.103515625" y="46.40000057220459" x="36.21914100646973" class="er attributeBoxEven"></rect><text style="dominant-baseline: middle; font-size: 10.2px;" transform="translate(41.21914100646973,57.40000057220459)" y="0" x="0" id="text-entity-shop-933ea2d0-0d64-5b04-bc1d-733c28030fef-attr-2-name" class="er entityLabel">shop_name</text></g><g transform="translate(235.406005859375,446 )" id="entity-goods-395c1f45-6295-5a9d-826b-b6d3098cf4f1"><rect height="113.20000076293945" width="116.77314758300781" y="0" x="0" class="er entityBox"></rect><text style="dominant-baseline: middle; text-anchor: middle; font-size: 12px;" transform="translate(58.386573791503906,11.800000190734863)" y="0" x="0" id="text-entity-goods-395c1f45-6295-5a9d-826b-b6d3098cf4f1" class="er entityLabel">goods</text><rect height="22.800000190734863" width="47.64931869506836" y="23.600000381469727" x="0" class="er attributeBoxOdd"></rect><text style="dominant-baseline: middle; font-size: 10.2px;" transform="translate(5,35.00000047683716)" y="0" x="0" id="text-entity-goods-395c1f45-6295-5a9d-826b-b6d3098cf4f1-attr-1-type" class="er entityLabel">string</text><rect height="22.800000190734863" width="69.12382888793945" y="23.600000381469727" x="47.64931869506836" class="er attributeBoxOdd"></rect><text style="dominant-baseline: middle; font-size: 10.2px;" transform="translate(52.64931869506836,35.00000047683716)" y="0" x="0" id="text-entity-goods-395c1f45-6295-5a9d-826b-b6d3098cf4f1-attr-1-name" class="er entityLabel">goods_id(PK)</text><rect height="22" width="47.64931869506836" y="46.40000057220459" x="0" class="er attributeBoxEven"></rect><text style="dominant-baseline: middle; font-size: 10.2px;" transform="translate(5,57.40000057220459)" y="0" x="0" id="text-entity-goods-395c1f45-6295-5a9d-826b-b6d3098cf4f1-attr-2-type" class="er entityLabel">string</text><rect height="22" width="69.12382888793945" y="46.40000057220459" x="47.64931869506836" class="er attributeBoxEven"></rect><text style="dominant-baseline: middle; font-size: 10.2px;" transform="translate(52.64931869506836,57.40000057220459)" y="0" x="0" id="text-entity-goods-395c1f45-6295-5a9d-826b-b6d3098cf4f1-attr-2-name" class="er entityLabel">goods_name</text><rect height="22.800000190734863" width="47.64931869506836" y="68.40000057220459" x="0" class="er attributeBoxOdd"></rect><text style="dominant-baseline: middle; font-size: 10.2px;" transform="translate(5,79.80000066757202)" y="0" x="0" id="text-entity-goods-395c1f45-6295-5a9d-826b-b6d3098cf4f1-attr-3-type" class="er entityLabel">string</text><rect height="22.800000190734863" width="69.12382888793945" y="68.40000057220459" x="47.64931869506836" class="er attributeBoxOdd"></rect><text style="dominant-baseline: middle; font-size: 10.2px;" transform="translate(52.64931869506836,79.80000066757202)" y="0" x="0" id="text-entity-goods-395c1f45-6295-5a9d-826b-b6d3098cf4f1-attr-3-name" class="er entityLabel">shop_id(FK)</text><rect height="22" width="47.64931869506836" y="91.20000076293945" x="0" class="er attributeBoxEven"></rect><text style="dominant-baseline: middle; font-size: 10.2px;" transform="translate(5,102.20000076293945)" y="0" x="0" id="text-entity-goods-395c1f45-6295-5a9d-826b-b6d3098cf4f1-attr-4-type" class="er entityLabel">numeric</text><rect height="22" width="69.12382888793945" y="91.20000076293945" x="47.64931869506836" class="er attributeBoxEven"></rect><text style="dominant-baseline: middle; font-size: 10.2px;" transform="translate(52.64931869506836,102.20000076293945)" y="0" x="0" id="text-entity-goods-395c1f45-6295-5a9d-826b-b6d3098cf4f1-attr-4-name" class="er entityLabel">goods_price</text></g><g transform="translate(27.771484375,256 )" id="entity-user-dad033c9-7a45-5f6a-ab5a-b5def405b2a6"><rect height="68.40000057220459" width="100" y="0" x="0" class="er entityBox"></rect><text style="dominant-baseline: middle; text-anchor: middle; font-size: 12px;" transform="translate(50,11.800000190734863)" y="0" x="0" id="text-entity-user-dad033c9-7a45-5f6a-ab5a-b5def405b2a6" class="er entityLabel">user</text><rect height="22.800000190734863" width="36.87211894989014" y="23.600000381469727" x="0" class="er attributeBoxOdd"></rect><text style="dominant-baseline: middle; font-size: 10.2px;" transform="translate(5,35.00000047683716)" y="0" x="0" id="text-entity-user-dad033c9-7a45-5f6a-ab5a-b5def405b2a6-attr-1-type" class="er entityLabel">string</text><rect height="22.800000190734863" width="63.12788105010986" y="23.600000381469727" x="36.87211894989014" class="er attributeBoxOdd"></rect><text style="dominant-baseline: middle; font-size: 10.2px;" transform="translate(41.87211894989014,35.00000047683716)" y="0" x="0" id="text-entity-user-dad033c9-7a45-5f6a-ab5a-b5def405b2a6-attr-1-name" class="er entityLabel">user_id(PK)</text><rect height="22" width="36.87211894989014" y="46.40000057220459" x="0" class="er attributeBoxEven"></rect><text style="dominant-baseline: middle; font-size: 10.2px;" transform="translate(5,57.40000057220459)" y="0" x="0" id="text-entity-user-dad033c9-7a45-5f6a-ab5a-b5def405b2a6-attr-2-type" class="er entityLabel">string</text><rect height="22" width="63.12788105010986" y="46.40000057220459" x="36.87211894989014" class="er attributeBoxEven"></rect><text style="dominant-baseline: middle; font-size: 10.2px;" transform="translate(41.87211894989014,57.40000057220459)" y="0" x="0" id="text-entity-user-dad033c9-7a45-5f6a-ab5a-b5def405b2a6-attr-2-name" class="er entityLabel">username</text></g><g transform="translate(20.136962890625,424.4000015258789 )" id="entity-address-30c0d688-dbdc-5f86-9bc6-9a2d2ce26984"><rect height="156.4000005722046" width="115.26904487609863" y="0" x="0" class="er entityBox"></rect><text style="dominant-baseline: middle; text-anchor: middle; font-size: 12px;" transform="translate(57.634522438049316,11.800000190734863)" y="0" x="0" id="text-entity-address-30c0d688-dbdc-5f86-9bc6-9a2d2ce26984" class="er entityLabel">address</text><rect height="22.800000190734863" width="36.21914100646973" y="23.600000381469727" x="0" class="er attributeBoxOdd"></rect><text style="dominant-baseline: middle; font-size: 10.2px;" transform="translate(5,35.00000047683716)" y="0" x="0" id="text-entity-address-30c0d688-dbdc-5f86-9bc6-9a2d2ce26984-attr-1-type" class="er entityLabel">string</text><rect height="22.800000190734863" width="79.0499038696289" y="23.600000381469727" x="36.21914100646973" class="er attributeBoxOdd"></rect><text style="dominant-baseline: middle; font-size: 10.2px;" transform="translate(41.21914100646973,35.00000047683716)" y="0" x="0" id="text-entity-address-30c0d688-dbdc-5f86-9bc6-9a2d2ce26984-attr-1-name" class="er entityLabel">user_id(PK_FK)</text><rect height="22" width="36.21914100646973" y="46.40000057220459" x="0" class="er attributeBoxEven"></rect><text style="dominant-baseline: middle; font-size: 10.2px;" transform="translate(5,57.40000057220459)" y="0" x="0" id="text-entity-address-30c0d688-dbdc-5f86-9bc6-9a2d2ce26984-attr-2-type" class="er entityLabel">string</text><rect height="22" width="79.0499038696289" y="46.40000057220459" x="36.21914100646973" class="er attributeBoxEven"></rect><text style="dominant-baseline: middle; font-size: 10.2px;" transform="translate(41.21914100646973,57.40000057220459)" y="0" x="0" id="text-entity-address-30c0d688-dbdc-5f86-9bc6-9a2d2ce26984-attr-2-name" class="er entityLabel">house_no</text><rect height="22" width="36.21914100646973" y="68.40000057220459" x="0" class="er attributeBoxOdd"></rect><text style="dominant-baseline: middle; font-size: 10.2px;" transform="translate(5,79.40000057220459)" y="0" x="0" id="text-entity-address-30c0d688-dbdc-5f86-9bc6-9a2d2ce26984-attr-3-type" class="er entityLabel">string</text><rect height="22" width="79.0499038696289" y="68.40000057220459" x="36.21914100646973" class="er attributeBoxOdd"></rect><text style="dominant-baseline: middle; font-size: 10.2px;" transform="translate(41.21914100646973,79.40000057220459)" y="0" x="0" id="text-entity-address-30c0d688-dbdc-5f86-9bc6-9a2d2ce26984-attr-3-name" class="er entityLabel">sub_district</text><rect height="22" width="36.21914100646973" y="90.40000057220459" x="0" class="er attributeBoxEven"></rect><text style="dominant-baseline: middle; font-size: 10.2px;" transform="translate(5,101.40000057220459)" y="0" x="0" id="text-entity-address-30c0d688-dbdc-5f86-9bc6-9a2d2ce26984-attr-4-type" class="er entityLabel">string</text><rect height="22" width="79.0499038696289" y="90.40000057220459" x="36.21914100646973" class="er attributeBoxEven"></rect><text style="dominant-baseline: middle; font-size: 10.2px;" transform="translate(41.21914100646973,101.40000057220459)" y="0" x="0" id="text-entity-address-30c0d688-dbdc-5f86-9bc6-9a2d2ce26984-attr-4-name" class="er entityLabel">district</text><rect height="22" width="36.21914100646973" y="112.40000057220459" x="0" class="er attributeBoxOdd"></rect><text style="dominant-baseline: middle; font-size: 10.2px;" transform="translate(5,123.40000057220459)" y="0" x="0" id="text-entity-address-30c0d688-dbdc-5f86-9bc6-9a2d2ce26984-attr-5-type" class="er entityLabel">string</text><rect height="22" width="79.0499038696289" y="112.40000057220459" x="36.21914100646973" class="er attributeBoxOdd"></rect><text style="dominant-baseline: middle; font-size: 10.2px;" transform="translate(41.21914100646973,123.40000057220459)" y="0" x="0" id="text-entity-address-30c0d688-dbdc-5f86-9bc6-9a2d2ce26984-attr-5-name" class="er entityLabel">city</text><rect height="22" width="36.21914100646973" y="134.4000005722046" x="0" class="er attributeBoxEven"></rect><text style="dominant-baseline: middle; font-size: 10.2px;" transform="translate(5,145.4000005722046)" y="0" x="0" id="text-entity-address-30c0d688-dbdc-5f86-9bc6-9a2d2ce26984-attr-6-type" class="er entityLabel">string</text><rect height="22" width="79.0499038696289" y="134.4000005722046" x="36.21914100646973" class="er attributeBoxEven"></rect><text style="dominant-baseline: middle; font-size: 10.2px;" transform="translate(41.21914100646973,145.4000005722046)" y="0" x="0" id="text-entity-address-30c0d688-dbdc-5f86-9bc6-9a2d2ce26984-attr-6-name" class="er entityLabel">postcode</text></g><g transform="translate(20,20 )" id="entity-order-f0240572-0a1d-50f9-b3d8-c69bf9e53203"><rect height="136.00000095367432" width="115.54297256469727" y="0" x="0" class="er entityBox"></rect><text style="dominant-baseline: middle; text-anchor: middle; font-size: 12px;" transform="translate(57.77148628234863,11.800000190734863)" y="0" x="0" id="text-entity-order-f0240572-0a1d-50f9-b3d8-c69bf9e53203" class="er entityLabel">order</text><rect height="22.800000190734863" width="47.64931869506836" y="23.600000381469727" x="0" class="er attributeBoxOdd"></rect><text style="dominant-baseline: middle; font-size: 10.2px;" transform="translate(5,35.00000047683716)" y="0" x="0" id="text-entity-order-f0240572-0a1d-50f9-b3d8-c69bf9e53203-attr-1-type" class="er entityLabel">string</text><rect height="22.800000190734863" width="67.8936538696289" y="23.600000381469727" x="47.64931869506836" class="er attributeBoxOdd"></rect><text style="dominant-baseline: middle; font-size: 10.2px;" transform="translate(52.64931869506836,35.00000047683716)" y="0" x="0" id="text-entity-order-f0240572-0a1d-50f9-b3d8-c69bf9e53203-attr-1-name" class="er entityLabel">order_id(PK)</text><rect height="22" width="47.64931869506836" y="46.40000057220459" x="0" class="er attributeBoxEven"></rect><text style="dominant-baseline: middle; font-size: 10.2px;" transform="translate(5,57.40000057220459)" y="0" x="0" id="text-entity-order-f0240572-0a1d-50f9-b3d8-c69bf9e53203-attr-2-type" class="er entityLabel">string</text><rect height="22" width="67.8936538696289" y="46.40000057220459" x="47.64931869506836" class="er attributeBoxEven"></rect><text style="dominant-baseline: middle; font-size: 10.2px;" transform="translate(52.64931869506836,57.40000057220459)" y="0" x="0" id="text-entity-order-f0240572-0a1d-50f9-b3d8-c69bf9e53203-attr-2-name" class="er entityLabel">order_no</text><rect height="22.800000190734863" width="47.64931869506836" y="68.40000057220459" x="0" class="er attributeBoxOdd"></rect><text style="dominant-baseline: middle; font-size: 10.2px;" transform="translate(5,79.80000066757202)" y="0" x="0" id="text-entity-order-f0240572-0a1d-50f9-b3d8-c69bf9e53203-attr-3-type" class="er entityLabel">string</text><rect height="22.800000190734863" width="67.8936538696289" y="68.40000057220459" x="47.64931869506836" class="er attributeBoxOdd"></rect><text style="dominant-baseline: middle; font-size: 10.2px;" transform="translate(52.64931869506836,79.80000066757202)" y="0" x="0" id="text-entity-order-f0240572-0a1d-50f9-b3d8-c69bf9e53203-attr-3-name" class="er entityLabel">user_id(FK)</text><rect height="22.800000190734863" width="47.64931869506836" y="91.20000076293945" x="0" class="er attributeBoxEven"></rect><text style="dominant-baseline: middle; font-size: 10.2px;" transform="translate(5,102.60000085830688)" y="0" x="0" id="text-entity-order-f0240572-0a1d-50f9-b3d8-c69bf9e53203-attr-4-type" class="er entityLabel">string</text><rect height="22.800000190734863" width="67.8936538696289" y="91.20000076293945" x="47.64931869506836" class="er attributeBoxEven"></rect><text style="dominant-baseline: middle; font-size: 10.2px;" transform="translate(52.64931869506836,102.60000085830688)" y="0" x="0" id="text-entity-order-f0240572-0a1d-50f9-b3d8-c69bf9e53203-attr-4-name" class="er entityLabel">shop_id(FK)</text><rect height="22" width="47.64931869506836" y="114.00000095367432" x="0" class="er attributeBoxOdd"></rect><text style="dominant-baseline: middle; font-size: 10.2px;" transform="translate(5,125.00000095367432)" y="0" x="0" id="text-entity-order-f0240572-0a1d-50f9-b3d8-c69bf9e53203-attr-5-type" class="er entityLabel">numeric</text><rect height="22" width="67.8936538696289" y="114.00000095367432" x="47.64931869506836" class="er attributeBoxOdd"></rect><text style="dominant-baseline: middle; font-size: 10.2px;" transform="translate(52.64931869506836,125.00000095367432)" y="0" x="0" id="text-entity-order-f0240572-0a1d-50f9-b3d8-c69bf9e53203-attr-5-name" class="er entityLabel">total_price</text></g><g transform="translate(38.35515213012695,680.7999954223633 )" id="entity-ordergoods-5a74ae56-c777-58ce-ae5e-d0c69570eec8"><rect height="135.20000076293945" width="137.21924209594727" y="0" x="0" class="er entityBox"></rect><text style="dominant-baseline: middle; text-anchor: middle; font-size: 12px;" transform="translate(68.60962104797363,11.800000190734863)" y="0" x="0" id="text-entity-ordergoods-5a74ae56-c777-58ce-ae5e-d0c69570eec8" class="er entityLabel">order_goods</text><rect height="22.800000190734863" width="47.64931869506836" y="23.600000381469727" x="0" class="er attributeBoxOdd"></rect><text style="dominant-baseline: middle; font-size: 10.2px;" transform="translate(5,35.00000047683716)" y="0" x="0" id="text-entity-ordergoods-5a74ae56-c777-58ce-ae5e-d0c69570eec8-attr-1-type" class="er entityLabel">string</text><rect height="22.800000190734863" width="89.5699234008789" y="23.600000381469727" x="47.64931869506836" class="er attributeBoxOdd"></rect><text style="dominant-baseline: middle; font-size: 10.2px;" transform="translate(52.64931869506836,35.00000047683716)" y="0" x="0" id="text-entity-ordergoods-5a74ae56-c777-58ce-ae5e-d0c69570eec8-attr-1-name" class="er entityLabel">order_id(PK_FK)</text><rect height="22.800000190734863" width="47.64931869506836" y="46.40000057220459" x="0" class="er attributeBoxEven"></rect><text style="dominant-baseline: middle; font-size: 10.2px;" transform="translate(5,57.80000066757202)" y="0" x="0" id="text-entity-ordergoods-5a74ae56-c777-58ce-ae5e-d0c69570eec8-attr-2-type" class="er entityLabel">string</text><rect height="22.800000190734863" width="89.5699234008789" y="46.40000057220459" x="47.64931869506836" class="er attributeBoxEven"></rect><text style="dominant-baseline: middle; font-size: 10.2px;" transform="translate(52.64931869506836,57.80000066757202)" y="0" x="0" id="text-entity-ordergoods-5a74ae56-c777-58ce-ae5e-d0c69570eec8-attr-2-name" class="er entityLabel">goods_id(PK_FK)</text><rect height="22" width="47.64931869506836" y="69.20000076293945" x="0" class="er attributeBoxOdd"></rect><text style="dominant-baseline: middle; font-size: 10.2px;" transform="translate(5,80.20000076293945)" y="0" x="0" id="text-entity-ordergoods-5a74ae56-c777-58ce-ae5e-d0c69570eec8-attr-3-type" class="er entityLabel">integer</text><rect height="22" width="89.5699234008789" y="69.20000076293945" x="47.64931869506836" class="er attributeBoxOdd"></rect><text style="dominant-baseline: middle; font-size: 10.2px;" transform="translate(52.64931869506836,80.20000076293945)" y="0" x="0" id="text-entity-ordergoods-5a74ae56-c777-58ce-ae5e-d0c69570eec8-attr-3-name" class="er entityLabel">number_of_piece</text><rect height="22" width="47.64931869506836" y="91.20000076293945" x="0" class="er attributeBoxEven"></rect><text style="dominant-baseline: middle; font-size: 10.2px;" transform="translate(5,102.20000076293945)" y="0" x="0" id="text-entity-ordergoods-5a74ae56-c777-58ce-ae5e-d0c69570eec8-attr-4-type" class="er entityLabel">numeric</text><rect height="22" width="89.5699234008789" y="91.20000076293945" x="47.64931869506836" class="er attributeBoxEven"></rect><text style="dominant-baseline: middle; font-size: 10.2px;" transform="translate(52.64931869506836,102.20000076293945)" y="0" x="0" id="text-entity-ordergoods-5a74ae56-c777-58ce-ae5e-d0c69570eec8-attr-4-name" class="er entityLabel">price_per_piece</text><rect height="22" width="47.64931869506836" y="113.20000076293945" x="0" class="er attributeBoxOdd"></rect><text style="dominant-baseline: middle; font-size: 10.2px;" transform="translate(5,124.20000076293945)" y="0" x="0" id="text-entity-ordergoods-5a74ae56-c777-58ce-ae5e-d0c69570eec8-attr-5-type" class="er entityLabel">numeric</text><rect height="22" width="89.5699234008789" y="113.20000076293945" x="47.64931869506836" class="er attributeBoxOdd"></rect><text style="dominant-baseline: middle; font-size: 10.2px;" transform="translate(52.64931869506836,124.20000076293945)" y="0" x="0" id="text-entity-ordergoods-5a74ae56-c777-58ce-ae5e-d0c69570eec8-attr-5-name" class="er entityLabel">sum</text></g><rect height="13.600000381469727" width="17.725000381469727" y="378.4000120162964" x="284.93049907684326" class="er relationshipLabelBox"></rect><text style="text-anchor: middle; dominant-baseline: middle; font-size: 12px;" y="385.20001220703125" x="293.7929992675781" id="rel7" class="er relationshipLabel">has</text><rect height="13.600000381469727" width="17.725000381469727" y="367.5999937057495" x="68.90850353240967" class="er relationshipLabelBox"></rect><text style="text-anchor: middle; dominant-baseline: middle; font-size: 12px;" y="374.3999938964844" x="77.77100372314453" id="rel8" class="er relationshipLabel">has</text><rect height="13.600000381469727" width="17.725000381469727" y="167.02168560028076" x="222.0574827194214" class="er relationshipLabelBox"></rect><text style="text-anchor: middle; dominant-baseline: middle; font-size: 12px;" y="173.82168579101562" x="230.91998291015625" id="rel9" class="er relationshipLabel">has</text><rect height="13.600000381469727" width="17.725000381469727" y="199.19999980926514" x="68.90850353240967" class="er relationshipLabelBox"></rect><text style="text-anchor: middle; dominant-baseline: middle; font-size: 12px;" y="206" x="77.77100372314453" id="rel10" class="er relationshipLabel">has</text><rect height="13.600000381469727" width="17.725000381469727" y="416.39177227020264" x="-88.7254991531372" class="er relationshipLabelBox"></rect><text style="text-anchor: middle; dominant-baseline: middle; font-size: 12px;" y="423.1917724609375" x="-79.86299896240234" id="rel11" class="er relationshipLabel">has</text><rect height="13.600000381469727" width="17.725000381469727" y="641.3065061569214" x="248.84065532684326" class="er relationshipLabelBox"></rect><text style="text-anchor: middle; dominant-baseline: middle; font-size: 12px;" y="648.1065063476562" x="257.7031555175781" id="rel12" class="er relationshipLabel">has</text></svg>